<svg aria-hidden="true" style="position:absolute;width:0;height:0;overflow:hidden" xmlns="http://www.w3.org/2000/svg">
  <defs>
    <symbol id="icon-checpoint" viewBox="0 0 44 32">
      <path stroke-width="8" d="m6.555 12.601 12.22 12.351L40.77 3.619"/>
    </symbol>
    <symbol id="icon-close" viewBox="0 0 32 32">
      <path d="M31.479 3.035A1.778 1.778 0 0 0 28.965.521L16 13.486 3.035.521A1.778 1.778 0 0 0 .521 3.035L13.486 16 .521 28.965a1.778 1.778 0 0 0 2.514 2.514L16 18.514l12.965 12.965a1.778 1.778 0 0 0 2.514-2.514L18.514 16 31.479 3.035z"/>
    </symbol>
    <symbol id="icon-flag" viewBox="0 0 48 32">
      <path fill="#ffd500" style="fill:var(--color1, #ffd500)" d="M48 32H0V16h48v16z"/>
      <path fill="#005bbb" style="fill:var(--color2, #005bbb)" d="M48 15.999H0v-16h48v16z"/>
    </symbol>
    <symbol id="icon-logo" viewBox="0 0 107 32">
      <path d="M106.667 0v32H59.734V0h46.933zM74.555 8.811v13.927l.001.044a.838.838 0 0 1-.001.087c-.007.08.015.128.107.115a.485.485 0 0 1 .066-.001H78.329c.075.001.111.001.129-.017s.016-.051.014-.116l-.001-.078V8.829l-.001-.033a.485.485 0 0 1 .001-.066c.008-.082-.02-.125-.108-.115-.017.002-.036.001-.054.001l-.028-.001h-3.535l-.062-.001c-.065-.001-.097-.001-.113.015s-.016.049-.015.116l.001.064zm19.497-.194h-5.839c-1.946 0-3.891 0-5.836-.002h-.131c-.066-.003-.089.028-.084.089a.486.486 0 0 1 0 .054v3.398c0 .072-.001.107.017.124s.051.016.117.016h3.713c.12 0 .179 0 .208.03s.029.086.029.2v10.282l-.001.053c-.001.059-.001.09.014.106.017.017.052.017.126.017h3.556c.11 0 .165 0 .192-.027s.027-.08.027-.186V12.489l-.001-.059c-.001-.064-.001-.097.015-.114.018-.018.055-.018.133-.018h3.783c.161 0 .161 0 .163-.159V8.821l.001-.061c.001-.072.001-.108-.016-.126s-.052-.017-.122-.016l-.063.001zM46.933 0l12.8 16-12.8 16H0V0h46.933zM20.752 13.662l.215.174a.371.371 0 0 0 .106-.107.256.256 0 0 1 .02-.026c.254-.302.507-.606.76-.91.507-.606 1.012-1.212 1.518-1.82.101-.122.097-.177-.018-.276a12.617 12.617 0 0 0-.277-.233c-.803-.657-1.685-1.17-2.684-1.467a9.43 9.43 0 0 0-2.043-.353c-.905-.061-1.802-.031-2.691.174-3.112.716-5.434 3.292-5.707 6.594a7.795 7.795 0 0 0 .225 2.638c.519 1.96 1.645 3.461 3.434 4.45.975.539 2.03.823 3.14.912.94.076 1.87.018 2.788-.189 1.553-.35 2.925-1.056 4.146-2.067a.333.333 0 0 0 .137-.289c-.004-1.572-.004-3.145-.003-4.717v-1.179a.66.66 0 0 0-.003-.062c-.003-.046-.006-.092.006-.134.015-.049-.012-.077-.037-.104-.021-.022-.042-.044-.039-.077.007-.054-.03-.062-.073-.062h-6.556l-.038.001c-.026.001-.052.002-.077-.001-.066-.007-.087.026-.083.087a.657.657 0 0 1 .001.077l-.001.038V17.839l-.001.074c-.001.063-.002.096.014.112s.052.017.125.016H19.772c.072-.001.107-.001.124.016.016.016.015.048.014.11l-.001.078v.679c0 .308 0 .311-.279.445-.818.391-1.681.503-2.573.391-.991-.123-1.784-.591-2.365-1.401-.378-.527-.585-1.122-.662-1.763-.097-.818.002-1.605.373-2.348.448-.892 1.125-1.533 2.098-1.827.682-.207 1.373-.153 2.056-.003.619.135 1.159.437 1.657.816.182.138.359.281.539.427zm18.346-2.98c-1.528-1.39-3.348-2.052-5.229-2.066-.869.002-1.518.072-2.207.251-1.998.521-3.563 1.638-4.602 3.422-1.067 1.83-1.283 3.793-.687 5.812.667 2.257 2.089 3.9 4.29 4.815 1.69.701 3.44.795 5.206.332 2.051-.537 3.624-1.725 4.654-3.578.869-1.562 1.102-3.238.778-4.987-.291-1.572-1.017-2.919-2.203-4zm-8.437 3.528c-.452.833-.558 1.732-.386 2.66.135.733.454 1.381.983 1.914.824.831 1.833 1.158 2.99 1.025 1.196-.136 2.084-.747 2.654-1.797.484-.894.585-1.85.358-2.834-.373-1.633-1.743-2.811-3.837-2.806-1.032.023-2.096.611-2.762 1.838z"/>
    </symbol>
  </defs>
</svg>
